<svg width="400" height="400" viewBox="0 0 100 100" xml:space="preserve">
  <defs>
    <radialGradient id="a" cx="50%" cy="50%" r="50%" fx="50%" fy="50%">
      <stop offset="0%" style="stop-color:#e96f54;stop-opacity:1"/>
      <stop offset="40%" style="stop-color:#eb5e67;stop-opacity:1"/>
      <stop offset="100%" style="stop-color:#ef1b90;stop-opacity:1"/>
    </radialGradient>
  </defs>
  <path fill="url(#a)" d="M0 0h100v100H0z"/>
  <path d="M46.6 0h-5.4c-3.9.2-6.7 1.6-9.1 3.5-1.7 1.4-3.2 3.2-4.5 5.1l-1.2 1.7h47.2c2.8-.1 4.9-.7 6.8-1.7 3.1-1.7 5.4-4.2 7.3-7L88.8 0zM11.7 12.4l-.3.2c0 .1.1.2.3.2l28.2 4.6-6.7 10 10.2-1.6 9-13.5zm41.5 0v.1c.5.2 1.2.9-.2 3.1l-6.6 9.9 10.2-1.6 7.7-11.5zm11.8 0v.1c.5.2 1.2.9-.2 3.1l-5.2 7.9 6.9-1c.7-.1 1.4-.3 2-.6 1.9-1.1 3.2-2.6 4.4-4.4l3.3-5zm-42.1 4.4L10.6 35.4 27 32.9l9.1-13.7zm2.6 23.1H25" style="fill:#000;fill-rule:nonzero;stroke:none;stroke-width:.2;fill-opacity:1" transform="translate(0 32)"/>
</svg>
